<?xml version="1.0"?><svg width="744.09448" height="533.3333333333333" xmlns="http://www.w3.org/2000/svg">
 <g>
  <title>Layer 1</title>
  <g id="layer1">
   <g id="g1581">
    <path d="m446.425873,201.770645c-13.14209,-1.877457 27.668549,-21.284119 39.618896,-27.065842c37.861603,-18.317871 55.786835,-33.814224 93.526886,-49.98851c23.306396,-9.988441 38.362366,1.254128 62.078613,-8.232391c15.235291,-6.094101 44.414856,11.543839 51.0224,24.758896c7.242859,14.485779 14.008728,33.642014 10.253845,48.661423c-7.294556,29.178268 -10.890747,55.742981 -15.145447,85.525986c-0.924744,6.473358 -1.285889,36.455597 -2.360901,42.905701c-4.828247,28.96933 -4.657166,47.780609 -14.049927,75.95874c-13.095276,39.286072 -60.780273,-14.343048 -89.429871,-21.256165c-8.891479,-2.145477 -38.767273,-11.788849 -75.102386,-36.447784c-14.274506,-9.687439 -34.171539,-22.01236 -56.207153,-34.441895c-2.920319,-50.460953 -1.075043,-73.662323 -1.612518,-74.199829" id="path1543" stroke-miterlimit="4" stroke-width="4" stroke="#f7efef" fill-rule="evenodd" fill="#007fff"/>
    <path d="m323.903046,202.484879c13.259155,-1.798187 -38.376892,-25.351791 -50.433685,-30.889526c-38.198792,-17.544739 -55.872437,-35.828766 -93.465729,-52.34906c-21.770264,-9.566849 -42.01535,-7.72242 -64.342903,-10.974449c-20.717316,-3.017525 -37.259712,15.143234 -43.926102,27.800575c-7.307373,13.874435 -23.055397,35.165115 -24.498077,66.931595c-1.307091,28.780182 0.152279,40.497147 2.786701,69.204025c1.571301,17.122345 4.87941,26.9729 5.963989,45.506622c1.643612,28.086121 -0.658428,59.349731 26.080387,80.592438c30.634781,24.337891 83.673309,-15.961792 112.578003,-23.410767c8.905823,-2.295135 59.569366,-30.586517 68.329529,-36.823792c13.923981,-9.913971 53.718353,-19.773132 61.983154,-33.652222c6.050293,-10.160248 4.660828,0.758453 5.203125,0.243622" id="path1545" stroke-miterlimit="4" stroke-width="3.800464" stroke="#f7efef" fill-rule="evenodd" fill="#007fff"/>
    <path d="m111.330971,99.035782c-15.864952,0.420059 -42.778633,17.903198 -49.027451,30.400909c-7.49371,14.987442 -20.235481,34.105499 -21.714931,68.420288c-1.340397,31.088943 1.855862,47.611084 -0.46534,76.946548c-1.464451,18.508179 7.306473,38.049988 11.692352,48.142334c-1.006142,10.600555 8.242039,66.465118 33.854389,83.447449c23.559097,15.620941 80.470268,-18.65918 110.111992,-26.70575c9.132904,-2.479187 61.088196,-34.976898 70.071716,-41.714539c14.278992,-10.709229 46.785645,-19.195831 61.750732,-26.678345c0.010956,-0.005493 0.025604,-0.030823 0.036438,-0.036499c0.053589,-0.029419 0.132172,-0.075592 0.182526,-0.109467c0.557068,-0.388794 0.936737,-1.046234 1.42334,-1.532837l0,-108.42865c13.597198,-1.94249 -39.35022,-27.411636 -51.714417,-33.393555c-39.172729,-18.95224 -58.198242,-33.868896 -96.750061,-51.714401c-22.325317,-10.334328 -42.322418,-12.22789 -65.0718,-16.678551c-1.431824,-0.28009 -2.887886,-0.404449 -4.379486,-0.364937zm-4.141335,11.53315c-10.082314,2.61644 45.071686,-1.735588 32.241333,-2.353714c-21.823875,-1.05146 29.617401,17.575493 50.693512,26.906334c36.394653,16.112671 31.122345,18.626526 93.13681,42.8909c11.977234,4.68634 55.40921,22.133148 42.572815,23.887009l-2.68219,104.176346c-0.508575,0.48642 -0.905914,1.130371 -1.532806,1.459808c-0.010223,0.005157 -0.026123,0.031525 -0.036499,0.036499c-14.127686,6.755951 -40.999603,11.069305 -54.479614,20.738678c-8.480865,6.083374 -53.961731,40.951965 -62.818176,41.906097c-34.241547,3.688904 -87.738487,45.927307 -109.979347,31.823212c-24.179176,-15.333313 -26.185081,-25.728821 -27.217003,-53.148743c-0.687134,-18.257843 -6.890862,-50.72699 -10.413719,-66.045013c-6.073082,-26.406769 -4.746292,-66.945145 -3.4809,-95.015213c1.396709,-30.982681 16.559917,-31.146759 25.838451,-52.499634c10.654388,-24.519165 13.269188,-24.13192 28.157333,-24.762566z" id="path1547" stroke-miterlimit="4" stroke-width="1.167862" stroke="#f7efef" fill-rule="evenodd" fill="#007fff"/>
    <path d="m658.493164,107.803268c-1.275818,0.060631 -56.774841,3.734299 -80.081238,13.722733c-37.740051,16.174316 -53.921875,31.665588 -91.783478,49.98349c-11.950409,5.781738 -58.694885,20.653854 -45.552734,22.531281l7.667145,109.323975c0.478729,0.478699 36.126373,34.603394 49.927429,33.916138c10.840057,-0.539795 55.82782,34.117828 64.837769,32.542145c14.823364,-2.592407 100.540405,67.450287 113.635742,28.164215c9.3927,-28.178192 11.803894,-60.78537 16.632141,-89.754669c1.075012,-6.450134 1.990356,-39.029785 2.915039,-45.503143c4.254761,-29.78299 3.610107,-35.933609 10.904602,-65.111877c3.754883,-15.019424 1.114746,-47.5616 -6.128113,-62.047394c-6.142944,-12.285881 -29.561279,-16.47084 -42.974304,-27.766891zm-12.354675,12.117172c15.110718,-0.51252 38.405396,11.535812 43.863953,23.035522c6.463074,13.616089 13.402893,43.255356 10.052307,57.373001c-6.509216,27.426392 -12.006165,40.225403 -15.802856,68.220169c-0.825195,6.084747 -1.933167,31.821594 -2.892456,37.88446c-4.30835,27.230011 -10.313843,53.832886 -18.695313,80.319214c-11.685364,36.927307 -83.179749,-32.296417 -113.371338,-32.296417c-8.161865,-0.000031 -27.653687,-17.100067 -35.401672,-23.221191c-12.315216,-9.729309 -63.123047,-46.87616 -69.410889,-32.68985c-7.157715,16.149078 -20.385132,-1.011536 -22.482971,16.283569l29.127869,-111.4664c-11.727203,-1.764709 33.958038,-24.865875 44.621765,-30.300491c33.785278,-17.218063 51.510132,-24.004745 85.18689,-39.207932c20.797119,-9.388718 33.77771,-6.039536 54.940552,-14.956429c1.009033,-0.42514 4.732056,2.792175 10.26416,1.022774z" id="path1549" stroke-miterlimit="4" stroke-width="4" stroke="#f7efef" fill-rule="evenodd" fill="#007fff"/>
    <path d="m331.85556,187.466156c-11.180664,8.286346 -10.928955,23.864349 -13.347015,38.372589c-2.657013,15.942307 0,35.446228 0,51.719604c0,10.455902 3.100433,24.552856 6.673523,31.699066c8.011475,16.022949 37.174408,11.772705 53.38797,15.015381c11.776794,2.355377 47.066803,1.492188 56.724701,-3.336731c15.00708,-7.50354 15.043518,-21.801422 20.020508,-41.709351c3.893005,-15.572021 3.336731,-38.57045 3.336731,-55.056366c0,-12.171219 -7.855988,-31.213226 -15.01535,-38.372589c-12.664154,-12.664139 -53.041229,-5.908951 -70.071716,-8.341873c-7.102448,-1.014648 -28.45636,0.188004 -41.709351,10.010269z" id="path1551" stroke-miterlimit="4" stroke-width="6.423241" stroke="#f7efef" fill-rule="evenodd" fill="#007fff"/>
    <path d="m225.769287,297.241852l38.282471,-13.136536l32.310028,-16.184113l20.526611,-5.498016l0.726105,6.714142c0,0 -18.629456,2.147156 -43.517303,14.128906c-24.562927,6.924591 -56.03418,19.493256 -56.03418,19.493256l7.706268,-5.517639z" id="path1553" stroke-miterlimit="4" stroke-linecap="round" stroke-width="4" stroke="#f7efef" fill="#007fff"/>
    <path d="m319.431061,282.291962c33.046967,-18.704346 134.185181,-0.58197 134.185181,-0.58197c0,0 9.958313,10.688995 -12.516815,36.901459c-30.620453,21.260681 -115.828247,-4.470276 -115.828247,-4.470276c0,0 -5.447083,-19.006287 -5.840118,-31.849213z" id="path1555" stroke-miterlimit="4" stroke-width="5.5" stroke="#f7efef" fill-opacity="0.222222" fill="#007fff"/>
    <path d="m214.41156,210.11058l26.176971,6.042023l19.024475,4.253876l56.768402,14.111603l0.152161,16.974548l-12.827698,-15.082809l-89.294312,-26.29924z" id="path1557" stroke-miterlimit="4" stroke-linecap="round" stroke-width="4" stroke="#f7efef" fill="#007fff"/>
    <path d="m463.854156,233.35614l17.236389,-3.792648l14.554199,-1.110489l42.463409,-14.498322l-46.338898,19.656754l-36.073242,7.268707l8.158142,-7.524002z" id="path1559" stroke-miterlimit="4" stroke-linecap="round" stroke-width="4" stroke="#f7efef" fill="#007fff"/>
    <path d="m462.06604,268.224457l5.613617,6.936066l17.236328,4.253876l21.006042,8.747253l16.245209,8.033966l-68.259338,-20.447174l8.158142,-7.523987z" id="path1561" stroke-miterlimit="4" stroke-linecap="round" stroke-width="4" stroke="#f7efef" fill="#007fff"/>
   </g>
  </g>
 </g>

</svg>